<?xml version="1.0" encoding="UTF-8" standalone="no"?>
<!-- Generator: Adobe Illustrator 18.0.0, SVG Export Plug-In . SVG Version: 6.00 Build 0)  -->

<svg
   xmlns:dc="http://purl.org/dc/elements/1.1/"
   xmlns:cc="http://creativecommons.org/ns#"
   xmlns:rdf="http://www.w3.org/1999/02/22-rdf-syntax-ns#"
   xmlns:svg="http://www.w3.org/2000/svg"
   xmlns="http://www.w3.org/2000/svg"
   xmlns:sodipodi="http://sodipodi.sourceforge.net/DTD/sodipodi-0.dtd"
   xmlns:inkscape="http://www.inkscape.org/namespaces/inkscape"
   version="1.1"
   id="GraphQL_Logo"
   x="0px"
   y="0px"
   viewBox="0 0 400 400"
   enable-background="new 0 0 400 400"
   xml:space="preserve"
   inkscape:version="0.91 r13725"
   sodipodi:docname="gql-logo.svg"><metadata
     id="metadata75"><rdf:RDF><cc:Work
         rdf:about=""><dc:format>image/svg+xml</dc:format><dc:type
           rdf:resource="http://purl.org/dc/dcmitype/StillImage" /></cc:Work></rdf:RDF></metadata><defs
     id="defs73" /><sodipodi:namedview
     pagecolor="#ffffff"
     bordercolor="#666666"
     borderopacity="1"
     objecttolerance="10"
     gridtolerance="10"
     guidetolerance="10"
     inkscape:pageopacity="0"
     inkscape:pageshadow="2"
     inkscape:window-width="699"
     inkscape:window-height="480"
     id="namedview71"
     showgrid="false"
     inkscape:zoom="0.59"
     inkscape:cx="200"
     inkscape:cy="200"
     inkscape:window-x="0"
     inkscape:window-y="0"
     inkscape:window-maximized="0"
     inkscape:current-layer="GraphQL_Logo" /><g
     id="g3"
     style="fill:#ffffff"><g
       id="g5"
       style="fill:#ffffff"><g
         id="g7"
         style="fill:#ffffff"><rect
           x="122"
           y="-0.4"
           transform="matrix(-0.866 -0.5 0.5 -0.866 163.3196 363.3136)"
           fill="#E535AB"
           width="16.6"
           height="320.3"
           id="rect9"
           style="fill:#ffffff" /></g></g><g
       id="g11"
       style="fill:#ffffff"><g
         id="g13"
         style="fill:#ffffff"><rect
           x="39.8"
           y="272.2"
           fill="#E535AB"
           width="320.3"
           height="16.6"
           id="rect15"
           style="fill:#ffffff" /></g></g><g
       id="g17"
       style="fill:#ffffff"><g
         id="g19"
         style="fill:#ffffff"><rect
           x="37.9"
           y="312.2"
           transform="matrix(-0.866 -0.5 0.5 -0.866 83.0693 663.3409)"
           fill="#E535AB"
           width="185"
           height="16.6"
           id="rect21"
           style="fill:#ffffff" /></g></g><g
       id="g23"
       style="fill:#ffffff"><g
         id="g25"
         style="fill:#ffffff"><rect
           x="177.1"
           y="71.1"
           transform="matrix(-0.866 -0.5 0.5 -0.866 463.3409 283.0693)"
           fill="#E535AB"
           width="185"
           height="16.6"
           id="rect27"
           style="fill:#ffffff" /></g></g><g
       id="g29"
       style="fill:#ffffff"><g
         id="g31"
         style="fill:#ffffff"><rect
           x="122.1"
           y="-13"
           transform="matrix(-0.5 -0.866 0.866 -0.5 126.7903 232.1221)"
           fill="#E535AB"
           width="16.6"
           height="185"
           id="rect33"
           style="fill:#ffffff" /></g></g><g
       id="g35"
       style="fill:#ffffff"><g
         id="g37"
         style="fill:#ffffff"><rect
           x="109.6"
           y="151.6"
           transform="matrix(-0.5 -0.866 0.866 -0.5 266.0828 473.3766)"
           fill="#E535AB"
           width="320.3"
           height="16.6"
           id="rect39"
           style="fill:#ffffff" /></g></g><g
       id="g41"
       style="fill:#ffffff"><g
         id="g43"
         style="fill:#ffffff"><rect
           x="52.5"
           y="107.5"
           fill="#E535AB"
           width="16.6"
           height="185"
           id="rect45"
           style="fill:#ffffff" /></g></g><g
       id="g47"
       style="fill:#ffffff"><g
         id="g49"
         style="fill:#ffffff"><rect
           x="330.9"
           y="107.5"
           fill="#E535AB"
           width="16.6"
           height="185"
           id="rect51"
           style="fill:#ffffff" /></g></g><g
       id="g53"
       style="fill:#ffffff"><g
         id="g55"
         style="fill:#ffffff"><rect
           x="262.4"
           y="240.1"
           transform="matrix(-0.5 -0.866 0.866 -0.5 126.7953 714.2875)"
           fill="#E535AB"
           width="14.5"
           height="160.9"
           id="rect57"
           style="fill:#ffffff" /></g></g><path
       fill="#E535AB"
       d="M369.5,297.9c-9.6,16.7-31,22.4-47.7,12.8c-16.7-9.6-22.4-31-12.8-47.7c9.6-16.7,31-22.4,47.7-12.8   C373.5,259.9,379.2,281.2,369.5,297.9"
       id="path59"
       style="fill:#ffffff" /><path
       fill="#E535AB"
       d="M90.9,137c-9.6,16.7-31,22.4-47.7,12.8c-16.7-9.6-22.4-31-12.8-47.7c9.6-16.7,31-22.4,47.7-12.8   C94.8,99,100.5,120.3,90.9,137"
       id="path61"
       style="fill:#ffffff" /><path
       fill="#E535AB"
       d="M30.5,297.9c-9.6-16.7-3.9-38,12.8-47.7c16.7-9.6,38-3.9,47.7,12.8c9.6,16.7,3.9,38-12.8,47.7   C61.4,320.3,40.1,314.6,30.5,297.9"
       id="path63"
       style="fill:#ffffff" /><path
       fill="#E535AB"
       d="M309.1,137c-9.6-16.7-3.9-38,12.8-47.7c16.7-9.6,38-3.9,47.7,12.8c9.6,16.7,3.9,38-12.8,47.7   C340.1,159.4,318.7,153.7,309.1,137"
       id="path65"
       style="fill:#ffffff" /><path
       fill="#E535AB"
       d="M200,395.8c-19.3,0-34.9-15.6-34.9-34.9c0-19.3,15.6-34.9,34.9-34.9c19.3,0,34.9,15.6,34.9,34.9   C234.9,380.1,219.3,395.8,200,395.8"
       id="path67"
       style="fill:#ffffff" /><path
       fill="#E535AB"
       d="M200,74c-19.3,0-34.9-15.6-34.9-34.9c0-19.3,15.6-34.9,34.9-34.9c19.3,0,34.9,15.6,34.9,34.9   C234.9,58.4,219.3,74,200,74"
       id="path69"
       style="fill:#ffffff" /></g></svg>